<svg width="147" height="28" viewBox="0 0 147 28" fill="none" xmlns="http://www.w3.org/2000/svg">
<path d="M36.558 14.52C36.558 13.74 36.696 12.972 36.972 12.216C37.26 11.448 37.674 10.764 38.214 10.164C38.754 9.564 39.414 9.078 40.194 8.706C40.974 8.334 41.862 8.148 42.858 8.148C44.034 8.148 45.048 8.406 45.9 8.922C46.764 9.438 47.406 10.11 47.826 10.938L45.918 12.252C45.75 11.892 45.546 11.592 45.306 11.352C45.066 11.1 44.808 10.902 44.532 10.758C44.256 10.614 43.968 10.512 43.668 10.452C43.368 10.38 43.074 10.344 42.786 10.344C42.162 10.344 41.616 10.47 41.148 10.722C40.692 10.974 40.308 11.304 39.996 11.712C39.696 12.108 39.468 12.564 39.312 13.08C39.156 13.584 39.078 14.088 39.078 14.592C39.078 15.156 39.168 15.702 39.348 16.23C39.528 16.746 39.78 17.202 40.104 17.598C40.44 17.994 40.836 18.312 41.292 18.552C41.76 18.792 42.27 18.912 42.822 18.912C43.11 18.912 43.41 18.876 43.722 18.804C44.034 18.732 44.328 18.618 44.604 18.462C44.892 18.306 45.156 18.108 45.396 17.868C45.636 17.616 45.828 17.316 45.972 16.968L48.006 18.138C47.802 18.618 47.508 19.044 47.124 19.416C46.752 19.776 46.326 20.082 45.846 20.334C45.378 20.586 44.874 20.778 44.334 20.91C43.794 21.042 43.266 21.108 42.75 21.108C41.838 21.108 41.004 20.916 40.248 20.532C39.492 20.148 38.838 19.65 38.286 19.038C37.746 18.414 37.32 17.712 37.008 16.932C36.708 16.14 36.558 15.336 36.558 14.52ZM53.1321 8.22H55.3281L60.1881 21H57.6321L56.4441 17.814H51.9801L50.8101 21H48.2541L53.1321 8.22ZM55.9941 16.068L54.2301 11.046L52.3941 16.068H55.9941ZM64.0738 12.81V21H61.5898V8.22H63.5158L70.1758 16.608V8.238H72.6598V21H70.6438L64.0738 12.81ZM78.9543 8.22H81.1503L86.0103 21H83.4543L82.2663 17.814H77.8023L76.6323 21H74.0763L78.9543 8.22ZM81.8163 16.068L80.0523 11.046L78.2163 16.068H81.8163ZM87.4121 21V8.22H92.8301C93.4181 8.22 93.9581 8.346 94.4501 8.598C94.9541 8.838 95.3861 9.162 95.7461 9.57C96.1061 9.966 96.3881 10.422 96.5921 10.938C96.7961 11.442 96.8981 11.952 96.8981 12.468C96.8981 13.008 96.8021 13.536 96.6101 14.052C96.4181 14.556 96.1481 15.006 95.8001 15.402C95.4521 15.798 95.0321 16.116 94.5401 16.356C94.0481 16.596 93.5081 16.716 92.9201 16.716H89.8961V21H87.4121ZM89.8961 14.538H92.7761C93.2321 14.538 93.6101 14.352 93.9101 13.98C94.2221 13.608 94.3781 13.104 94.3781 12.468C94.3781 12.144 94.3301 11.856 94.2341 11.604C94.1381 11.34 94.0121 11.118 93.8561 10.938C93.7001 10.758 93.5141 10.626 93.2981 10.542C93.0941 10.446 92.8841 10.398 92.6681 10.398H89.8961V14.538ZM107.501 18.822V21H98.6269V8.22H107.339V10.398H101.111V13.476H106.493V15.492H101.111V18.822H107.501ZM108.897 14.52C108.897 13.752 109.029 12.99 109.293 12.234C109.569 11.466 109.965 10.782 110.481 10.182C110.997 9.582 111.627 9.096 112.371 8.724C113.127 8.34 113.985 8.148 114.945 8.148C116.085 8.148 117.057 8.412 117.861 8.94C118.665 9.456 119.265 10.122 119.661 10.938L118.905 11.37C118.677 10.926 118.407 10.554 118.095 10.254C117.795 9.954 117.465 9.714 117.105 9.534C116.757 9.342 116.391 9.204 116.007 9.12C115.623 9.036 115.245 8.994 114.873 8.994C114.057 8.994 113.337 9.162 112.713 9.498C112.089 9.822 111.561 10.248 111.129 10.776C110.697 11.304 110.367 11.904 110.139 12.576C109.923 13.236 109.815 13.902 109.815 14.574C109.815 15.33 109.947 16.05 110.211 16.734C110.475 17.418 110.835 18.024 111.291 18.552C111.747 19.068 112.287 19.482 112.911 19.794C113.535 20.106 114.207 20.262 114.927 20.262C115.311 20.262 115.707 20.214 116.115 20.118C116.523 20.022 116.913 19.872 117.285 19.668C117.657 19.464 118.005 19.206 118.329 18.894C118.653 18.57 118.923 18.192 119.139 17.76L119.931 18.138C119.715 18.618 119.421 19.044 119.049 19.416C118.677 19.788 118.263 20.1 117.807 20.352C117.351 20.604 116.865 20.796 116.349 20.928C115.845 21.048 115.347 21.108 114.855 21.108C113.979 21.108 113.175 20.916 112.443 20.532C111.723 20.148 111.099 19.65 110.571 19.038C110.043 18.414 109.629 17.712 109.329 16.932C109.041 16.14 108.897 15.336 108.897 14.52ZM133.781 21V9.948L128.741 18.57H128.165L123.125 9.948V21H122.207V8.22H123.125L128.453 17.364L133.781 8.22H134.699V21H133.781ZM145.479 10.344C144.651 9.42 143.481 8.958 141.969 8.958C140.721 8.958 139.809 9.198 139.233 9.678C138.669 10.146 138.387 10.782 138.387 11.586C138.387 11.994 138.459 12.336 138.603 12.612C138.747 12.876 138.969 13.104 139.269 13.296C139.581 13.488 139.971 13.65 140.439 13.782C140.907 13.914 141.471 14.052 142.131 14.196C142.815 14.34 143.433 14.502 143.985 14.682C144.549 14.85 145.023 15.066 145.407 15.33C145.803 15.594 146.103 15.918 146.307 16.302C146.523 16.686 146.631 17.16 146.631 17.724C146.631 18.288 146.517 18.78 146.289 19.2C146.073 19.62 145.761 19.974 145.353 20.262C144.957 20.538 144.477 20.748 143.913 20.892C143.361 21.036 142.743 21.108 142.059 21.108C140.067 21.108 138.381 20.472 137.001 19.2L137.487 18.462C138.027 19.026 138.687 19.476 139.467 19.812C140.247 20.136 141.123 20.298 142.095 20.298C143.211 20.298 144.081 20.094 144.705 19.686C145.341 19.278 145.659 18.66 145.659 17.832C145.659 17.412 145.575 17.058 145.407 16.77C145.239 16.47 144.987 16.212 144.651 15.996C144.327 15.78 143.913 15.594 143.409 15.438C142.905 15.282 142.317 15.132 141.645 14.988C140.961 14.844 140.355 14.694 139.827 14.538C139.311 14.37 138.873 14.166 138.513 13.926C138.165 13.674 137.901 13.374 137.721 13.026C137.541 12.678 137.451 12.24 137.451 11.712C137.451 11.136 137.559 10.626 137.775 10.182C138.003 9.738 138.315 9.366 138.711 9.066C139.107 8.754 139.581 8.52 140.133 8.364C140.685 8.208 141.297 8.13 141.969 8.13C142.797 8.13 143.535 8.256 144.183 8.508C144.831 8.748 145.419 9.12 145.947 9.624L145.479 10.344Z" fill="white"/>
<circle cx="14" cy="14" r="14" fill="white"/>
<g clip-path="url(#clip0)">
<path fill-rule="evenodd" clip-rule="evenodd" d="M21.7912 5.11139C21.6243 4.99234 21.4493 4.87956 21.2667 4.77483C18.1432 2.97164 14.1497 4.04219 12.3461 7.16521L7.77254 15.0869C5.58983 13.2953 4.19659 10.5769 4.19659 7.5331C4.19659 7.41271 4.20017 7.29232 4.20465 7.17327C6.35424 4.09276 9.92437 2.07654 13.9635 2.07654C16.9782 2.07654 19.732 3.199 21.8279 5.04873L21.7912 5.11139Z" fill="#D22B2F"/>
<path fill-rule="evenodd" clip-rule="evenodd" d="M2.37955 11.6206C2.35941 11.8256 2.35001 12.0337 2.35001 12.2445C2.35001 15.8509 5.27387 18.7747 8.8807 18.7747H18.0278C17.5681 21.5612 15.91 24.1266 13.2743 25.6482C13.1696 25.7087 13.0644 25.766 12.9588 25.8219C9.21681 25.5001 5.68518 23.4167 3.66492 19.9182C2.15801 17.3072 1.75387 14.3614 2.3075 11.6206H2.37955Z" fill="#FDB933"/>
<path fill-rule="evenodd" clip-rule="evenodd" d="M17.7212 25.1765C17.9083 25.0911 18.0936 24.9957 18.2744 24.891C21.3979 23.0878 22.4684 19.0934 20.6652 15.9704L16.0921 8.04826C18.7345 7.05335 21.7854 7.20641 24.4215 8.72854C24.5254 8.78896 24.6287 8.85117 24.7294 8.91472C26.3223 12.3166 26.2838 16.4161 24.2635 19.9147C22.7566 22.5252 20.4079 24.3481 17.7584 25.2387L17.7212 25.1765Z" fill="#414042"/>
</g>
<defs>
<clipPath id="clip0">
<rect width="24" height="23.9906" fill="white" transform="translate(2 2)"/>
</clipPath>
</defs>
</svg>
