<svg width="28" height="28" viewBox="0 0 28 28" fill="none" xmlns="http://www.w3.org/2000/svg">
<circle cx="14" cy="14" r="14" fill="white"/>
<path fill-rule="evenodd" clip-rule="evenodd" d="M21.7912 5.11139C21.6243 4.99234 21.4493 4.87956 21.2667 4.77483C18.1432 2.97164 14.1497 4.04219 12.3461 7.16521L7.77254 15.0869C5.58983 13.2953 4.19659 10.5769 4.19659 7.5331C4.19659 7.41271 4.20017 7.29232 4.20465 7.17327C6.35424 4.09276 9.92437 2.07654 13.9635 2.07654C16.9782 2.07654 19.732 3.199 21.8279 5.04873L21.7912 5.11139Z" fill="#D22B2F"/>
<path fill-rule="evenodd" clip-rule="evenodd" d="M2.37955 11.6206C2.35941 11.8256 2.35001 12.0337 2.35001 12.2445C2.35001 15.8509 5.27387 18.7747 8.8807 18.7747H18.0278C17.5681 21.5612 15.91 24.1266 13.2743 25.6482C13.1696 25.7087 13.0644 25.766 12.9588 25.8219C9.21681 25.5001 5.68518 23.4167 3.66492 19.9182C2.15801 17.3072 1.75387 14.3614 2.3075 11.6206H2.37955Z" fill="#FDB933"/>
<path fill-rule="evenodd" clip-rule="evenodd" d="M17.7212 25.1765C17.9083 25.091 18.0936 24.9957 18.2744 24.8909C21.3979 23.0877 22.4684 19.0933 20.6652 15.9703L16.0921 8.0482C18.7345 7.05329 21.7854 7.20635 24.4215 8.72848C24.5254 8.7889 24.6287 8.85111 24.7294 8.91466C26.3223 12.3165 26.2838 16.4161 24.2635 19.9146C22.7566 22.5252 20.4079 24.3481 17.7584 25.2387L17.7212 25.1765Z" fill="#414042"/>
</svg>
