<svg width="111" height="14" viewBox="0 0 111 14" fill="none" xmlns="http://www.w3.org/2000/svg">
<path d="M0.558 6.52C0.558 5.74 0.696 4.972 0.972 4.216C1.26 3.448 1.674 2.764 2.214 2.164C2.754 1.564 3.414 1.078 4.194 0.705999C4.974 0.333999 5.862 0.147999 6.858 0.147999C8.034 0.147999 9.048 0.405999 9.9 0.922C10.764 1.438 11.406 2.11 11.826 2.938L9.918 4.252C9.75 3.892 9.546 3.592 9.306 3.352C9.066 3.1 8.808 2.902 8.532 2.758C8.256 2.614 7.968 2.512 7.668 2.452C7.368 2.38 7.074 2.344 6.786 2.344C6.162 2.344 5.616 2.47 5.148 2.722C4.692 2.974 4.308 3.304 3.996 3.712C3.696 4.108 3.468 4.564 3.312 5.08C3.156 5.584 3.078 6.088 3.078 6.592C3.078 7.156 3.168 7.702 3.348 8.23C3.528 8.746 3.78 9.202 4.104 9.598C4.44 9.994 4.836 10.312 5.292 10.552C5.76 10.792 6.27 10.912 6.822 10.912C7.11 10.912 7.41 10.876 7.722 10.804C8.034 10.732 8.328 10.618 8.604 10.462C8.892 10.306 9.156 10.108 9.396 9.868C9.636 9.616 9.828 9.316 9.972 8.968L12.006 10.138C11.802 10.618 11.508 11.044 11.124 11.416C10.752 11.776 10.326 12.082 9.846 12.334C9.378 12.586 8.874 12.778 8.334 12.91C7.794 13.042 7.266 13.108 6.75 13.108C5.838 13.108 5.004 12.916 4.248 12.532C3.492 12.148 2.838 11.65 2.286 11.038C1.746 10.414 1.32 9.712 1.008 8.932C0.708 8.14 0.558 7.336 0.558 6.52ZM17.1321 0.219999H19.3281L24.1881 13H21.6321L20.4441 9.814H15.9801L14.8101 13H12.2541L17.1321 0.219999ZM19.9941 8.068L18.2301 3.046L16.3941 8.068H19.9941ZM28.0738 4.81V13H25.5898V0.219999H27.5158L34.1758 8.608V0.237999H36.6598V13H34.6438L28.0738 4.81ZM42.9543 0.219999H45.1503L50.0103 13H47.4543L46.2663 9.814H41.8023L40.6323 13H38.0763L42.9543 0.219999ZM45.8163 8.068L44.0523 3.046L42.2163 8.068H45.8163ZM51.4121 13V0.219999H56.8301C57.4181 0.219999 57.9581 0.345999 58.4501 0.598C58.9541 0.838 59.3861 1.162 59.7461 1.57C60.1061 1.966 60.3881 2.422 60.5921 2.938C60.7961 3.442 60.8981 3.952 60.8981 4.468C60.8981 5.008 60.8021 5.536 60.6101 6.052C60.4181 6.556 60.1481 7.006 59.8001 7.402C59.4521 7.798 59.0321 8.116 58.5401 8.356C58.0481 8.596 57.5081 8.716 56.9201 8.716H53.8961V13H51.4121ZM53.8961 6.538H56.7761C57.2321 6.538 57.6101 6.352 57.9101 5.98C58.2221 5.608 58.3781 5.104 58.3781 4.468C58.3781 4.144 58.3301 3.856 58.2341 3.604C58.1381 3.34 58.0121 3.118 57.8561 2.938C57.7001 2.758 57.5141 2.626 57.2981 2.542C57.0941 2.446 56.8841 2.398 56.6681 2.398H53.8961V6.538ZM71.5009 10.822V13H62.6269V0.219999H71.3389V2.398H65.1109V5.476H70.4929V7.492H65.1109V10.822H71.5009ZM72.8975 6.52C72.8975 5.752 73.0295 4.99 73.2935 4.234C73.5695 3.466 73.9655 2.782 74.4815 2.182C74.9975 1.582 75.6275 1.096 76.3715 0.723999C77.1275 0.339999 77.9855 0.147999 78.9455 0.147999C80.0855 0.147999 81.0575 0.411999 81.8615 0.94C82.6655 1.456 83.2655 2.122 83.6615 2.938L82.9055 3.37C82.6775 2.926 82.4075 2.554 82.0955 2.254C81.7955 1.954 81.4655 1.714 81.1055 1.534C80.7575 1.342 80.3915 1.204 80.0075 1.12C79.6235 1.036 79.2455 0.993999 78.8735 0.993999C78.0575 0.993999 77.3375 1.162 76.7135 1.498C76.0895 1.822 75.5615 2.248 75.1295 2.776C74.6975 3.304 74.3675 3.904 74.1395 4.576C73.9235 5.236 73.8155 5.902 73.8155 6.574C73.8155 7.33 73.9475 8.05 74.2115 8.734C74.4755 9.418 74.8355 10.024 75.2915 10.552C75.7475 11.068 76.2875 11.482 76.9115 11.794C77.5355 12.106 78.2075 12.262 78.9275 12.262C79.3115 12.262 79.7075 12.214 80.1155 12.118C80.5235 12.022 80.9135 11.872 81.2855 11.668C81.6575 11.464 82.0055 11.206 82.3295 10.894C82.6535 10.57 82.9235 10.192 83.1395 9.76L83.9315 10.138C83.7155 10.618 83.4215 11.044 83.0495 11.416C82.6775 11.788 82.2635 12.1 81.8075 12.352C81.3515 12.604 80.8655 12.796 80.3495 12.928C79.8455 13.048 79.3475 13.108 78.8555 13.108C77.9795 13.108 77.1755 12.916 76.4435 12.532C75.7235 12.148 75.0995 11.65 74.5715 11.038C74.0435 10.414 73.6295 9.712 73.3295 8.932C73.0415 8.14 72.8975 7.336 72.8975 6.52ZM97.7812 13V1.948L92.7412 10.57H92.1652L87.1252 1.948V13H86.2072V0.219999H87.1252L92.4532 9.364L97.7812 0.219999H98.6992V13H97.7812ZM109.479 2.344C108.651 1.42 107.481 0.957999 105.969 0.957999C104.721 0.957999 103.809 1.198 103.233 1.678C102.669 2.146 102.387 2.782 102.387 3.586C102.387 3.994 102.459 4.336 102.603 4.612C102.747 4.876 102.969 5.104 103.269 5.296C103.581 5.488 103.971 5.65 104.439 5.782C104.907 5.914 105.471 6.052 106.131 6.196C106.815 6.34 107.433 6.502 107.985 6.682C108.549 6.85 109.023 7.066 109.407 7.33C109.803 7.594 110.103 7.918 110.307 8.302C110.523 8.686 110.631 9.16 110.631 9.724C110.631 10.288 110.517 10.78 110.289 11.2C110.073 11.62 109.761 11.974 109.353 12.262C108.957 12.538 108.477 12.748 107.913 12.892C107.361 13.036 106.743 13.108 106.059 13.108C104.067 13.108 102.381 12.472 101.001 11.2L101.487 10.462C102.027 11.026 102.687 11.476 103.467 11.812C104.247 12.136 105.123 12.298 106.095 12.298C107.211 12.298 108.081 12.094 108.705 11.686C109.341 11.278 109.659 10.66 109.659 9.832C109.659 9.412 109.575 9.058 109.407 8.77C109.239 8.47 108.987 8.212 108.651 7.996C108.327 7.78 107.913 7.594 107.409 7.438C106.905 7.282 106.317 7.132 105.645 6.988C104.961 6.844 104.355 6.694 103.827 6.538C103.311 6.37 102.873 6.166 102.513 5.926C102.165 5.674 101.901 5.374 101.721 5.026C101.541 4.678 101.451 4.24 101.451 3.712C101.451 3.136 101.559 2.626 101.775 2.182C102.003 1.738 102.315 1.366 102.711 1.066C103.107 0.754 103.581 0.52 104.133 0.364C104.685 0.207999 105.297 0.129999 105.969 0.129999C106.797 0.129999 107.535 0.256 108.183 0.508C108.831 0.748 109.419 1.12 109.947 1.624L109.479 2.344Z" fill="white"/>
</svg>
