<svg width="240" height="40" viewBox="0 0 240 40" fill="none" xmlns="http://www.w3.org/2000/svg">
	<path d="M55.93 19.2C55.93 17.9 56.16 16.62 56.62 15.36C57.1 14.08 57.79 12.94 58.69 11.94C59.59 10.94 60.69 10.13 61.99 9.51C63.29 8.89 64.77 8.58 66.43 8.58C68.39 8.58 70.08 9.01 71.5 9.87C72.94 10.73 74.01 11.85 74.71 13.23L71.53 15.42C71.25 14.82 70.91 14.32 70.51 13.92C70.11 13.5 69.68 13.17 69.22 12.93C68.76 12.69 68.28 12.52 67.78 12.42C67.28 12.3 66.79 12.24 66.31 12.24C65.27 12.24 64.36 12.45 63.58 12.87C62.82 13.29 62.18 13.84 61.66 14.52C61.16 15.18 60.78 15.94 60.52 16.8C60.26 17.64 60.13 18.48 60.13 19.32C60.13 20.26 60.28 21.17 60.58 22.05C60.88 22.91 61.3 23.67 61.84 24.33C62.4 24.99 63.06 25.52 63.82 25.92C64.6 26.32 65.45 26.52 66.37 26.52C66.85 26.52 67.35 26.46 67.87 26.34C68.39 26.22 68.88 26.03 69.34 25.77C69.82 25.51 70.26 25.18 70.66 24.78C71.06 24.36 71.38 23.86 71.62 23.28L75.01 25.23C74.67 26.03 74.18 26.74 73.54 27.36C72.92 27.96 72.21 28.47 71.41 28.89C70.63 29.31 69.79 29.63 68.89 29.85C67.99 30.07 67.11 30.18 66.25 30.18C64.73 30.18 63.34 29.86 62.08 29.22C60.82 28.58 59.73 27.75 58.81 26.73C57.91 25.69 57.2 24.52 56.68 23.22C56.18 21.9 55.93 20.56 55.93 19.2ZM83.5534 8.7H87.2134L95.3134 30H91.0534L89.0734 24.69H81.6334L79.6834 30H75.4234L83.5534 8.7ZM88.3234 21.78L85.3834 13.41L82.3234 21.78H88.3234ZM101.79 16.35V30H97.6497V8.7H100.86L111.96 22.68V8.73H116.1V30H112.74L101.79 16.35ZM126.591 8.7H130.251L138.351 30H134.091L132.111 24.69H124.671L122.721 30H118.461L126.591 8.7ZM131.361 21.78L128.421 13.41L125.361 21.78H131.361ZM140.687 30V8.7H149.717C150.697 8.7 151.597 8.91 152.417 9.33C153.257 9.73 153.977 10.27 154.577 10.95C155.177 11.61 155.647 12.37 155.987 13.23C156.327 14.07 156.497 14.92 156.497 15.78C156.497 16.68 156.337 17.56 156.017 18.42C155.697 19.26 155.247 20.01 154.667 20.67C154.087 21.33 153.387 21.86 152.567 22.26C151.747 22.66 150.847 22.86 149.867 22.86H144.827V30H140.687ZM144.827 19.23H149.627C150.387 19.23 151.017 18.92 151.517 18.3C152.037 17.68 152.297 16.84 152.297 15.78C152.297 15.24 152.217 14.76 152.057 14.34C151.897 13.9 151.687 13.53 151.427 13.23C151.167 12.93 150.857 12.71 150.497 12.57C150.157 12.41 149.807 12.33 149.447 12.33H144.827V19.23ZM174.168 26.37V30H159.378V8.7H173.898V12.33H163.518V17.46H172.488V20.82H163.518V26.37H174.168ZM176.496 19.2C176.496 17.92 176.716 16.65 177.156 15.39C177.616 14.11 178.276 12.97 179.136 11.97C179.996 10.97 181.046 10.16 182.286 9.54C183.546 8.9 184.976 8.58 186.576 8.58C188.476 8.58 190.096 9.02 191.436 9.9C192.776 10.76 193.776 11.87 194.436 13.23L193.176 13.95C192.796 13.21 192.346 12.59 191.826 12.09C191.326 11.59 190.776 11.19 190.176 10.89C189.596 10.57 188.986 10.34 188.346 10.2C187.706 10.06 187.076 9.99 186.456 9.99C185.096 9.99 183.896 10.27 182.856 10.83C181.816 11.37 180.936 12.08 180.216 12.96C179.496 13.84 178.946 14.84 178.566 15.96C178.206 17.06 178.026 18.17 178.026 19.29C178.026 20.55 178.246 21.75 178.686 22.89C179.126 24.03 179.726 25.04 180.486 25.92C181.246 26.78 182.146 27.47 183.186 27.99C184.226 28.51 185.346 28.77 186.546 28.77C187.186 28.77 187.846 28.69 188.526 28.53C189.206 28.37 189.856 28.12 190.476 27.78C191.096 27.44 191.676 27.01 192.216 26.49C192.756 25.95 193.206 25.32 193.566 24.6L194.886 25.23C194.526 26.03 194.036 26.74 193.416 27.36C192.796 27.98 192.106 28.5 191.346 28.92C190.586 29.34 189.776 29.66 188.916 29.88C188.076 30.08 187.246 30.18 186.426 30.18C184.966 30.18 183.626 29.86 182.406 29.22C181.206 28.58 180.166 27.75 179.286 26.73C178.406 25.69 177.716 24.52 177.216 23.22C176.736 21.9 176.496 20.56 176.496 19.2ZM217.969 30V11.58L209.569 25.95H208.609L200.209 11.58V30H198.679V8.7H200.209L209.089 23.94L217.969 8.7H219.499V30H217.969ZM237.465 12.24C236.085 10.7 234.135 9.93 231.615 9.93C229.535 9.93 228.015 10.33 227.055 11.13C226.115 11.91 225.645 12.97 225.645 14.31C225.645 14.99 225.765 15.56 226.005 16.02C226.245 16.46 226.615 16.84 227.115 17.16C227.635 17.48 228.285 17.75 229.065 17.97C229.845 18.19 230.785 18.42 231.885 18.66C233.025 18.9 234.055 19.17 234.975 19.47C235.915 19.75 236.705 20.11 237.345 20.55C238.005 20.99 238.505 21.53 238.845 22.17C239.205 22.81 239.385 23.6 239.385 24.54C239.385 25.48 239.195 26.3 238.815 27C238.455 27.7 237.935 28.29 237.255 28.77C236.595 29.23 235.795 29.58 234.855 29.82C233.935 30.06 232.905 30.18 231.765 30.18C228.445 30.18 225.635 29.12 223.335 27L224.145 25.77C225.045 26.71 226.145 27.46 227.445 28.02C228.745 28.56 230.205 28.83 231.825 28.83C233.685 28.83 235.135 28.49 236.175 27.81C237.235 27.13 237.765 26.1 237.765 24.72C237.765 24.02 237.625 23.43 237.345 22.95C237.065 22.45 236.645 22.02 236.085 21.66C235.545 21.3 234.855 20.99 234.015 20.73C233.175 20.47 232.195 20.22 231.075 19.98C229.935 19.74 228.925 19.49 228.045 19.23C227.185 18.95 226.455 18.61 225.855 18.21C225.275 17.79 224.835 17.29 224.535 16.71C224.235 16.13 224.085 15.4 224.085 14.52C224.085 13.56 224.265 12.71 224.625 11.97C225.005 11.23 225.525 10.61 226.185 10.11C226.845 9.59 227.635 9.2 228.555 8.94C229.475 8.68 230.495 8.55 231.615 8.55C232.995 8.55 234.225 8.76 235.305 9.18C236.385 9.58 237.365 10.2 238.245 11.04L237.465 12.24Z" fill="#222222"/>
	<g clip-path="url(#clip0)">
	<path fill-rule="evenodd" clip-rule="evenodd" d="M32.985 5.18565C32.7068 4.98724 32.4151 4.79927 32.1108 4.62472C26.905 1.61941 20.2492 3.40365 17.2431 8.60868L9.62055 21.8115C5.9827 18.8256 3.66064 14.2948 3.66064 9.22183C3.66064 9.02118 3.66661 8.82053 3.67407 8.62211C7.25673 3.48794 13.2069 0.127563 19.9389 0.127563C24.9634 0.127563 29.553 1.99833 33.0462 5.08122L32.985 5.18565Z" fill="#D22B2F"/>
	<path fill-rule="evenodd" clip-rule="evenodd" d="M0.632624 16.0343C0.599058 16.3759 0.583393 16.7228 0.583393 17.0741C0.583393 23.0847 5.45649 27.9578 11.4679 27.9578H26.713C25.9469 32.6019 23.1833 36.8776 18.7906 39.4137C18.616 39.5144 18.4407 39.6099 18.2647 39.7031C12.0281 39.1668 6.142 35.6945 2.77491 29.8637C0.263393 25.512 -0.410173 20.6023 0.512531 16.0343H0.632624Z" fill="#FDB933"/>
	<path fill-rule="evenodd" clip-rule="evenodd" d="M26.2025 38.6275C26.5143 38.4851 26.8231 38.3262 27.1244 38.1516C32.3302 35.1463 34.1144 28.489 31.1091 23.2839L23.4873 10.0804C27.8912 8.42221 32.9762 8.67731 37.3696 11.2142C37.5427 11.3149 37.715 11.4186 37.8828 11.5245C40.5376 17.1942 40.4734 24.0269 37.1063 29.8577C34.5948 34.2087 30.6802 37.2468 26.2644 38.7312L26.2025 38.6275Z" fill="#414042"/>
	</g>
	<defs>
	<clipPath id="clip0">
	<rect width="40" height="39.9843" fill="white"/>
	</clipPath>
	</defs>
	</svg>
	