<svg width="18" height="18" viewBox="0 0 18 18" fill="none" xmlns="http://www.w3.org/2000/svg">
<path d="M16.64 0.719999C16.04 0.613333 15.44 0.56 14.84 0.56C13.8 0.56 12.78 0.706666 11.78 0.999999C10.7933 1.28 9.86667 1.7 9 2.26C8.12 1.71333 7.18 1.3 6.18 1.02C5.19333 0.726666 4.18667 0.586666 3.16 0.599999C2.56 0.599999 1.96 0.653333 1.36 0.76C1.16 0.799999 0.993333 0.899999 0.86 1.06C0.726667 1.20667 0.66 1.38667 0.66 1.6V11.6C0.66 11.8533 0.76 12.0667 0.96 12.24C1.16 12.4 1.38667 12.46 1.64 12.42C2.85333 12.2067 4.05333 12.24 5.24 12.52C6.44 12.8 7.53333 13.3 8.52 14.02L8.62 14.08H8.7C8.9 14.16 9.1 14.16 9.3 14.08H9.38L9.48 14.02C10.4667 13.2867 11.5533 12.7733 12.74 12.48C13.94 12.1867 15.1467 12.14 16.36 12.34C16.6133 12.38 16.84 12.32 17.04 12.16C17.24 11.9867 17.34 11.7667 17.34 11.5V1.5C17.3267 1.3 17.2533 1.12667 17.12 0.979999C17 0.833333 16.84 0.746666 16.64 0.719999ZM8.16 11.8C6.6 10.9733 4.93333 10.56 3.16 10.56H2.34V2.22C2.60667 2.20667 2.88 2.20667 3.16 2.22C4.05333 2.22 4.92 2.34667 5.76 2.6C6.61333 2.85333 7.41333 3.22667 8.16 3.72V11.8ZM15.66 10.6H14.84C13.0667 10.6 11.4 11.0067 9.84 11.82V3.72C10.5867 3.22667 11.38 2.85333 12.22 2.6C13.0733 2.34667 13.9467 2.22 14.84 2.22C15.12 2.20667 15.3933 2.20667 15.66 2.22V10.6ZM16.64 14.04C16.04 13.9467 15.44 13.9 14.84 13.9C13.8 13.9 12.78 14.0467 11.78 14.34C10.7933 14.62 9.86667 15.04 9 15.6C8.13333 15.04 7.2 14.62 6.2 14.34C5.21333 14.0467 4.2 13.9 3.16 13.9C2.56 13.9 1.96 13.9467 1.36 14.04C1.13333 14.08 0.946667 14.1933 0.8 14.38C0.666667 14.5667 0.62 14.7733 0.66 15C0.7 15.2267 0.813333 15.4067 1 15.54C1.2 15.66 1.41333 15.7 1.64 15.66C2.85333 15.4467 4.05333 15.48 5.24 15.76C6.44 16.04 7.53333 16.54 8.52 17.26C8.66667 17.3667 8.82667 17.42 9 17.42C9.17333 17.42 9.33333 17.3667 9.48 17.26C10.4667 16.54 11.5533 16.04 12.74 15.76C13.94 15.48 15.1467 15.4467 16.36 15.66C16.5867 15.7 16.7933 15.66 16.98 15.54C17.18 15.4067 17.3 15.2267 17.34 15C17.38 14.7733 17.3267 14.5667 17.18 14.38C17.0467 14.1933 16.8667 14.08 16.64 14.04Z" fill="white"/>
</svg>
