<svg width="18" height="12" viewBox="0 0 18 12" fill="none" xmlns="http://www.w3.org/2000/svg">
<path d="M2.1 9.58C2.02 9.5 1.92667 9.44 1.82 9.4C1.60667 9.30667 1.39333 9.30667 1.18 9.4C1.07333 9.44 0.98 9.5 0.9 9.58C0.833333 9.66 0.78 9.74667 0.74 9.84C0.673333 10 0.653333 10.1667 0.68 10.34C0.706667 10.5 0.78 10.64 0.9 10.76C0.98 10.84 1.07333 10.9 1.18 10.94C1.39333 11.0333 1.60667 11.0333 1.82 10.94C1.92667 10.9 2.02 10.84 2.1 10.76C2.22 10.64 2.29333 10.5 2.32 10.34C2.34667 10.1667 2.32667 10 2.26 9.84C2.22 9.74667 2.16667 9.66 2.1 9.58ZM4.84 2.66H16.5C16.7 2.63333 16.8667 2.54 17 2.38C17.1467 2.22 17.22 2.04 17.22 1.84C17.22 1.62667 17.1467 1.44 17 1.28C16.8667 1.12 16.7 1.02667 16.5 1H4.84C4.64 1.02667 4.46667 1.12 4.32 1.28C4.18667 1.44 4.12 1.62667 4.12 1.84C4.12 2.04 4.18667 2.22 4.32 2.38C4.46667 2.54 4.64 2.63333 4.84 2.66ZM2.1 5.4C1.98 5.28 1.83333 5.20667 1.66 5.18C1.5 5.15333 1.34 5.17333 1.18 5.24C1.07333 5.28 0.98 5.34 0.9 5.42C0.833333 5.48667 0.78 5.57333 0.74 5.68C0.646667 5.89333 0.646667 6.10667 0.74 6.32C0.78 6.42667 0.833333 6.52 0.9 6.6C0.98 6.66667 1.07333 6.72 1.18 6.76C1.39333 6.85333 1.60667 6.85333 1.82 6.76C1.92667 6.72 2.01333 6.66667 2.08 6.6C2.16 6.52 2.22 6.42667 2.26 6.32C2.35333 6.10667 2.35333 5.89333 2.26 5.68C2.22 5.57333 2.16667 5.48 2.1 5.4ZM16.5 5.16H4.84C4.61333 5.16 4.41333 5.24667 4.24 5.42C4.08 5.58 4 5.77333 4 6C4 6.22667 4.08 6.42667 4.24 6.6C4.41333 6.76 4.61333 6.84 4.84 6.84H16.5C16.7267 6.84 16.92 6.76 17.08 6.6C17.2533 6.42667 17.34 6.22667 17.34 6C17.34 5.77333 17.2533 5.58 17.08 5.42C16.92 5.24667 16.7267 5.16 16.5 5.16ZM2.1 1.24C2.02 1.16 1.92667 1.1 1.82 1.06C1.66 0.993333 1.49333 0.979999 1.32 1.02C1.16 1.04667 1.02 1.12 0.9 1.24C0.833333 1.32 0.78 1.41333 0.74 1.52C0.646667 1.72 0.646667 1.92667 0.74 2.14C0.78 2.24667 0.833333 2.34 0.9 2.42C0.98 2.5 1.07333 2.56 1.18 2.6C1.34 2.66667 1.5 2.68667 1.66 2.66C1.83333 2.62 1.98 2.54 2.1 2.42C2.16667 2.34 2.22 2.24667 2.26 2.14C2.35333 1.92667 2.35333 1.72 2.26 1.52C2.22 1.41333 2.16667 1.32 2.1 1.24ZM16.5 9.34H4.84C4.64 9.36667 4.46667 9.46 4.32 9.62C4.18667 9.78 4.12 9.96667 4.12 10.18C4.12 10.38 4.18667 10.56 4.32 10.72C4.46667 10.88 4.64 10.9733 4.84 11H16.5C16.7 10.9733 16.8667 10.88 17 10.72C17.1467 10.56 17.22 10.38 17.22 10.18C17.22 9.96667 17.1467 9.78 17 9.62C16.8667 9.46 16.7 9.36667 16.5 9.34Z" fill="white"/>
</svg>
