<svg width="18" height="18" viewBox="0 0 18 18" fill="none" xmlns="http://www.w3.org/2000/svg">
<path d="M7.34 9.84H1.5C1.27333 9.84 1.07333 9.92 0.9 10.08C0.74 10.24 0.66 10.4333 0.66 10.66V16.5C0.66 16.7267 0.74 16.92 0.9 17.08C1.07333 17.2533 1.27333 17.34 1.5 17.34H7.34C7.56667 17.34 7.76 17.2533 7.92 17.08C8.08 16.92 8.16 16.7267 8.16 16.5V10.66C8.16 10.4333 8.08 10.24 7.92 10.08C7.76 9.92 7.56667 9.84 7.34 9.84ZM6.5 15.66H2.34V11.5H6.5V15.66ZM16.5 0.66H10.66C10.4333 0.66 10.24 0.746666 10.08 0.92C9.92 1.08 9.84 1.27333 9.84 1.5V7.34C9.84 7.56667 9.92 7.76 10.08 7.92C10.24 8.08 10.4333 8.16 10.66 8.16H16.5C16.7267 8.16 16.92 8.08 17.08 7.92C17.2533 7.76 17.34 7.56667 17.34 7.34V1.5C17.34 1.27333 17.2533 1.08 17.08 0.92C16.92 0.746666 16.7267 0.66 16.5 0.66ZM15.66 6.5H11.5V2.34H15.66V6.5ZM16.5 9.84H10.66C10.4333 9.84 10.24 9.92 10.08 10.08C9.92 10.24 9.84 10.4333 9.84 10.66V16.5C9.84 16.7267 9.92 16.92 10.08 17.08C10.24 17.2533 10.4333 17.34 10.66 17.34H16.5C16.7267 17.34 16.92 17.2533 17.08 17.08C17.2533 16.92 17.34 16.7267 17.34 16.5V10.66C17.34 10.4333 17.2533 10.24 17.08 10.08C16.92 9.92 16.7267 9.84 16.5 9.84ZM15.66 15.66H11.5V11.5H15.66V15.66ZM7.34 0.66H1.5C1.27333 0.66 1.07333 0.746666 0.9 0.92C0.74 1.08 0.66 1.27333 0.66 1.5V7.34C0.66 7.56667 0.74 7.76 0.9 7.92C1.07333 8.08 1.27333 8.16 1.5 8.16H7.34C7.56667 8.16 7.76 8.08 7.92 7.92C8.08 7.76 8.16 7.56667 8.16 7.34V1.5C8.16 1.27333 8.08 1.08 7.92 0.92C7.76 0.746666 7.56667 0.66 7.34 0.66ZM6.5 6.5H2.34V2.34H6.5V6.5Z" fill="white"/>
</svg>
