<svg width="18" height="18" viewBox="0 0 18 18" fill="none" xmlns="http://www.w3.org/2000/svg">
<path d="M15.66 5.82V1.5C15.6333 1.3 15.54 1.13333 15.38 0.999999C15.22 0.853332 15.0333 0.779999 14.82 0.779999C14.62 0.779999 14.44 0.853332 14.28 0.999999C14.12 1.13333 14.0267 1.3 14 1.5V5.82C13.5067 5.99333 13.1067 6.3 12.8 6.74C12.5067 7.16667 12.36 7.64667 12.36 8.18C12.36 8.7 12.5067 9.18 12.8 9.62C13.1067 10.0467 13.5067 10.3467 14 10.52V16.5C14.0267 16.7 14.12 16.8667 14.28 17C14.44 17.1467 14.62 17.22 14.82 17.22C15.0333 17.22 15.22 17.1467 15.38 17C15.54 16.8667 15.6333 16.7 15.66 16.5V10.52C16.1533 10.3467 16.5467 10.0467 16.84 9.62C17.1467 9.18 17.3 8.7 17.3 8.18C17.3 7.64667 17.1467 7.16667 16.84 6.74C16.5467 6.3 16.1533 5.99333 15.66 5.82ZM14.84 9C14.6667 9 14.5067 8.96 14.36 8.88C14.2267 8.78667 14.12 8.66 14.04 8.5C13.9733 8.34 13.9533 8.18 13.98 8.02C14.02 7.84667 14.1 7.7 14.22 7.58C14.34 7.46 14.48 7.38 14.64 7.34C14.8133 7.3 14.98 7.31333 15.14 7.38C15.3 7.44667 15.4267 7.55333 15.52 7.7C15.6133 7.83333 15.66 7.98667 15.66 8.16C15.66 8.38667 15.58 8.58667 15.42 8.76C15.26 8.92 15.0667 9 14.84 9ZM9.84 10.82V1.5C9.84 1.27333 9.75333 1.08 9.58 0.92C9.42 0.746666 9.22667 0.66 9 0.66C8.77333 0.66 8.57333 0.746666 8.4 0.92C8.24 1.08 8.16 1.27333 8.16 1.5V10.82C7.66667 10.9933 7.26667 11.3 6.96 11.74C6.66667 12.1667 6.52 12.6467 6.52 13.18C6.52 13.7 6.66667 14.18 6.96 14.62C7.26667 15.0467 7.66667 15.3467 8.16 15.52V16.5C8.16 16.7267 8.24 16.92 8.4 17.08C8.57333 17.2533 8.77333 17.34 9 17.34C9.22667 17.34 9.42 17.2533 9.58 17.08C9.75333 16.92 9.84 16.7267 9.84 16.5V15.52C10.3333 15.3467 10.7267 15.0467 11.02 14.62C11.3267 14.18 11.48 13.7 11.48 13.18C11.48 12.6467 11.3267 12.1667 11.02 11.74C10.7267 11.3 10.3333 10.9933 9.84 10.82ZM9 14C8.77333 14 8.57333 13.92 8.4 13.76C8.24 13.5867 8.16 13.3867 8.16 13.16C8.16 12.9333 8.24 12.74 8.4 12.58C8.57333 12.4067 8.77333 12.32 9 12.32C9.22667 12.32 9.42 12.4067 9.58 12.58C9.75333 12.74 9.84 12.9333 9.84 13.16C9.84 13.3867 9.75333 13.5867 9.58 13.76C9.42 13.92 9.22667 14 9 14ZM4 4.14V1.5C3.97333 1.3 3.88 1.13333 3.72 0.999999C3.56 0.853332 3.37333 0.779999 3.16 0.779999C2.96 0.779999 2.78 0.853332 2.62 0.999999C2.46 1.13333 2.36667 1.3 2.34 1.5V4.14C1.84667 4.31333 1.44667 4.62 1.14 5.06C0.846667 5.48667 0.7 5.96667 0.7 6.5C0.7 7.02 0.846667 7.5 1.14 7.94C1.44667 8.36667 1.84667 8.66667 2.34 8.84V16.5C2.36667 16.7 2.46 16.8667 2.62 17C2.78 17.1467 2.96 17.22 3.16 17.22C3.37333 17.22 3.56 17.1467 3.72 17C3.88 16.8667 3.97333 16.7 4 16.5V8.86C4.49333 8.68667 4.88667 8.38667 5.18 7.96C5.48667 7.52 5.64 7.04 5.64 6.52C5.64 5.98667 5.48667 5.50667 5.18 5.08C4.88667 4.64 4.49333 4.33333 4 4.16V4.14ZM3.16 7.34C2.93333 7.34 2.73333 7.26 2.56 7.1C2.4 6.92667 2.32 6.72667 2.32 6.5C2.32 6.27333 2.4 6.08 2.56 5.92C2.73333 5.74667 2.93333 5.66 3.16 5.66C3.38667 5.66 3.58 5.74667 3.74 5.92C3.91333 6.08 4 6.27333 4 6.5C4 6.72667 3.91333 6.92667 3.74 7.1C3.58 7.26 3.38667 7.34 3.16 7.34Z" fill="white"/>
</svg>
