<svg width="18" height="18" viewBox="0 0 18 18" fill="none" xmlns="http://www.w3.org/2000/svg">
<path d="M16.5 0.66H1.5C1.27333 0.66 1.07333 0.746666 0.9 0.92C0.74 1.08 0.66 1.27333 0.66 1.5V16.5C0.66 16.7267 0.74 16.92 0.9 17.08C1.07333 17.2533 1.27333 17.34 1.5 17.34H16.5C16.7267 17.34 16.92 17.2533 17.08 17.08C17.2533 16.92 17.34 16.7267 17.34 16.5V1.5C17.34 1.27333 17.2533 1.08 17.08 0.92C16.92 0.746666 16.7267 0.66 16.5 0.66ZM5.66 15.66H2.34V2.34H5.66V15.66ZM15.66 15.66H7.34V9.84H15.66V15.66ZM15.66 8.16H7.34V2.34H15.66V8.16Z" fill="white"/>
</svg>
