<svg id="Слой_1" data-name="Слой 1" xmlns="http://www.w3.org/2000/svg" viewBox="0 0 929.04 603.15"><defs><style>.cls-1{fill:#fff;}</style></defs><title>quote-t</title><path class="cls-1" d="M6,539.53c18.43-2.91,37.47-3.8,55.18-9.1,65.26-19.54,108.1-62.84,131.23-128.55-7.13-1.62-13-2.88-18.91-4.31-98.46-24-161-115.22-150.13-219.05C32.91,87.46,115.83,9.84,207.54,6.14c104.1-4.2,191,62.88,208,162.47C426,229.4,413.32,288,392.05,344.81c-57.69,154-210.13,262.06-371.68,264.11-4.79.06-9.58-.13-14.37-.21Q6,574.12,6,539.53Z" transform="translate(-6 -5.85)"/><path class="cls-1" d="M524.37,608.76V539.44c90.47-6.29,151.93-51.23,184.42-137.31-11.26-2.81-20.62-4.75-29.73-7.48-94.2-28.22-153.85-122.48-139.29-219.9C554.17,78.42,637.13,6.53,734.65,5.86c115.61-.8,206.62,94.6,200.06,209.69-11,193-141.33,345.64-329.79,385.46-19.63,4.15-39.88,5.44-59.89,7.64C538.5,609.37,531.82,608.76,524.37,608.76Z" transform="translate(-6 -5.85)"/></svg>